Coordinates
version=1
nRows=6
nColumns=46
inDegrees=yes

Units are S.I. units (second, meters, Newtons, ...)
Angles are in degrees.

endheader
time	pelvis_tilt	pelvis_list	pelvis_rotation	pelvis_tx	pelvis_ty	pelvis_tz	bb_angle	bb_tx	bb_ty	bb_tz	hip_flexion_r	hip_adduction_r	hip_rotation_r	knee_angle_r	knee_angle_r_beta	ankle_angle_r	subtalar_angle_r	mtp_angle_r	crank_angle_r	hip_flexion_l	hip_adduction_l	hip_rotation_l	knee_angle_l	knee_angle_l_beta	ankle_angle_l	subtalar_angle_l	mtp_angle_l	crank_angle_l	lumbar_extension	lumbar_bending	lumbar_rotation	arm_flex_r	arm_add_r	arm_rot_r	elbow_flex_r	pro_sup_r	wrist_flex_r	wrist_dev_r	arm_flex_l	arm_add_l	arm_rot_l	elbow_flex_l	pro_sup_l	wrist_flex_l	wrist_dev_l
      7.50500000	     -0.72512150	     -1.37865423	      6.89912918	      0.06276728	      1.18389737	     -0.25358455	      0.00000000	      0.50000000	      0.00000000	      0.25000000	     68.79255830	     -3.62302006	      6.84602503	    107.84049112	      1.88217164	    -26.83509721	     -7.56504843	      0.00000000	      0.00000000	     24.06358730	     -4.01851893	     -5.38531792	     23.52441676	      0.41057853	     -1.06830955	     13.83107780	      0.00000000	      0.00000000	    -68.44464067	     11.27180954	      2.87345286	     87.84238269	    -13.30600492	     33.56996278	     47.41444015	     38.38391021	      0.00000000	      0.00000000	     87.18784997	    -18.88219423	     54.28410032	     47.17418589	     37.14798318	      0.00000000	      0.00000000
      7.51000000	     -0.69987205	     -1.97786095	      6.06542570	      0.06345721	      1.18305920	     -0.25537617	      0.00000000	      0.50000000	      0.00000000	      0.25000000	     70.08037294	     -2.70293825	      6.94314024	    108.69694905	      1.89711965	    -25.90840448	     -6.84146021	      0.00000000	      0.00000000	     22.97889294	     -4.98830494	     -6.73075424	     22.78930849	      0.39774847	     -1.14420019	     16.06439731	      0.00000000	      0.00000000	    -68.37649589	     11.60892405	      2.93847486	     88.33684188	    -11.91226506	     34.54482856	     46.29520062	     38.35240197	      0.00000000	      0.00000000	     86.59187255	    -20.48471544	     53.90539812	     47.99700693	     37.52546346	      0.00000000	      0.00000000
      7.51500000	     -0.82828070	     -2.59397795	      5.52394804	      0.06374416	      1.18237198	     -0.25780983	      0.00000000	      0.50000000	      0.00000000	      0.25000000	     71.43180067	     -2.12836579	      6.85236965	    109.34402874	      1.90841332	    -24.97700114	     -6.93795089	      0.00000000	      0.00000000	     22.13325123	     -5.59927016	     -6.90619887	     22.13796933	      0.38638045	     -1.06077311	     15.65999425	      0.00000000	      0.00000000	    -68.27654100	     12.13468882	      3.49480429	     88.56622215	    -11.39639116	     34.72210061	     46.30734441	     38.37517849	      0.00000000	      0.00000000	     86.26408274	    -21.01973417	     53.84358741	     47.91490923	     37.54476137	      0.00000000	      0.00000000
      7.52000000	     -0.94479650	     -3.22698080	      4.76345044	      0.06393847	      1.18178081	     -0.25940632	      0.00000000	      0.50000000	      0.00000000	      0.25000000	     72.70820220	     -1.17881942	      6.84329497	    109.81105730	      1.91656451	    -23.93691614	     -6.53841114	      0.00000000	      0.00000000	     21.39596844	     -6.38009320	     -7.33718448	     21.85710884	      0.38147851	     -0.85131930	     14.78947701	      0.00000000	      0.00000000	    -68.18694676	     12.41408188	      3.84140697	     88.73677956	    -10.50095270	     35.09218091	     46.14011513	     38.38175485	      0.00000000	      0.00000000	     85.82851500	    -21.87515429	     53.63228322	     47.89584395	     37.58903964	      0.00000000	      0.00000000
      7.52500000	     -1.18805438	     -3.61082049	      4.08183156	      0.06415842	      1.18129756	     -0.26133744	      0.00000000	      0.50000000	      0.00000000	      0.25000000	     74.03732239	     -0.53721977	      7.07135401	    110.13692547	      1.92225198	    -22.95718400	     -5.64678748	      0.00000000	      0.00000000	     20.78020269	     -6.77764334	     -7.68472550	     21.32710987	      0.37222829	     -2.00652558	     15.22346762	      0.00000000	      0.00000000	    -67.99162028	     12.91422020	      2.53225334	     89.18508492	     -7.17899296	     35.52889563	     43.75806758	     37.82558213	      0.00000000	      0.00000000	     84.47668780	    -25.38865463	     51.67862546	     50.88372507	     38.75264627	      0.00000000	      0.00000000
      7.53000000	     -1.35657825	     -4.16557971	      3.42946513	      0.06401795	      1.18131100	     -0.26273169	      0.00000000	      0.50000000	      0.00000000	      0.25000000	     75.12928449	      0.25478983	      6.96853988	    110.18525617	      1.92309551	    -22.24633714	     -5.56516706	      0.00000000	      0.00000000	     20.26642760	     -7.40920844	     -7.85728354	     21.28716986	      0.37153120	     -1.90820458	     14.73603013	      0.00000000	      0.00000000	    -67.99407807	     13.16210543	      2.98912291	     89.27249216	     -6.64396202	     35.58804741	     43.94497905	     37.83404127	      0.00000000	      0.00000000	     84.30364834	    -25.90837948	     51.57960482	     50.63877434	     38.75590792	      0.00000000	      0.00000000
